<?xml version="1.0" encoding="utf-8"?>
<!-- Generator: Adobe Illustrator 23.0.2, SVG Export Plug-In . SVG Version: 6.00 Build 0)  -->
<svg version="1.1" id="Layer_1" xmlns="http://www.w3.org/2000/svg" xmlns:xlink="http://www.w3.org/1999/xlink" x="0px" y="0px"
	 viewBox="0 0 142 156" style="enable-background:new 0 0 142 156;" xml:space="preserve">
<style type="text/css">
	.st0{fill:#F3F6F7;}
	.st1{fill:#FFC30C;}
	.st2{fill:#1F1F3D;}
	.st3{font-family:'OpenSans-Bold';}
	.st4{font-size:22.4586px;}
</style>
<g>
	<g>
		<path class="st0" d="M115.8,109.1c0,6.8-5.6,12.4-12.4,12.4H38.6c-6.8,0-12.4-5.6-12.4-12.4V34.1c0-6.8,5.6-12.4,12.4-12.4H40v5.1
			c0,1,0.8,1.8,1.8,1.8s1.8-0.8,1.8-1.8v-5.1h6.2v5.1c0,1,0.8,1.8,1.8,1.8c1,0,1.8-0.8,1.8-1.8v-5.1h6.2v5.1c0,1,0.8,1.8,1.8,1.8
			s1.8-0.8,1.8-1.8v-5.1h6.2v5.1c0,1,0.8,1.8,1.8,1.8c1,0,1.8-0.8,1.8-1.8v-5.1H79v5.1c0,1,0.8,1.8,1.8,1.8c1,0,1.8-0.8,1.8-1.8
			v-5.1h6.2v5.1c0,1,0.8,1.8,1.8,1.8s1.8-0.8,1.8-1.8v-5.1h6.2v5.1c0,1,0.8,1.8,1.8,1.8s1.8-0.8,1.8-1.8v-5.1h1.4
			c6.8,0,12.4,5.6,12.4,12.4L115.8,109.1z"/>
		<path class="st1" d="M102.4,57.8H65.5c-0.8,0-1.4-0.6-1.4-1.4c0-0.8,0.6-1.4,1.4-1.4h36.9c0.8,0,1.4,0.6,1.4,1.4
			C103.8,57.1,103.2,57.8,102.4,57.8z"/>
		<path class="st1" d="M102.4,89.2H65.5c-0.8,0-1.4-0.6-1.4-1.4s0.6-1.4,1.4-1.4h36.9c0.8,0,1.4,0.6,1.4,1.4
			C103.8,88.5,103.2,89.2,102.4,89.2z"/>
		<path class="st1" d="M103.4,18.2H102v-6.4c0-1-0.8-1.8-1.8-1.8s-1.8,0.8-1.8,1.8v6.4h-6.2v-6.4c0-1-0.8-1.8-1.8-1.8
			s-1.8,0.8-1.8,1.8v6.4h-6.2v-6.4c0-1-0.8-1.8-1.8-1.8S79,10.8,79,11.8v6.4h-6.2v-6.4c0-1-0.8-1.8-1.8-1.8c-1,0-1.8,0.8-1.8,1.8
			v6.4H63v-6.4c0-1-0.8-1.8-1.8-1.8c-1,0-1.8,0.8-1.8,1.8v6.4h-6.2v-6.4c0-1-0.8-1.8-1.8-1.8s-1.8,0.8-1.8,1.8v6.4h-6.2v-6.4
			c0-1-0.8-1.8-1.8-1.8c-1,0-1.8,0.8-1.8,1.8v6.4h-1.4c-8.8,0-15.9,7.1-15.9,15.9v74.9c0,8.8,7.1,15.9,15.9,15.9h64.8
			c8.8,0,15.9-7.1,15.9-15.9V34.1C119.3,25.3,112.2,18.2,103.4,18.2z M115.8,109.1c0,6.8-5.6,12.4-12.4,12.4H38.6
			c-6.8,0-12.4-5.6-12.4-12.4V34.1c0-6.8,5.6-12.4,12.4-12.4H40v5.1c0,1,0.8,1.8,1.8,1.8s1.8-0.8,1.8-1.8v-5.1h6.2v5.1
			c0,1,0.8,1.8,1.8,1.8c1,0,1.8-0.8,1.8-1.8v-5.1h6.2v5.1c0,1,0.8,1.8,1.8,1.8c1,0,1.8-0.8,1.8-1.8v-5.1h6.2v5.1
			c0,1,0.8,1.8,1.8,1.8c1,0,1.8-0.8,1.8-1.8v-5.1H79v5.1c0,1,0.8,1.8,1.8,1.8s1.8-0.8,1.8-1.8v-5.1h6.2v5.1c0,1,0.8,1.8,1.8,1.8
			s1.8-0.8,1.8-1.8v-5.1h6.2v5.1c0,1,0.8,1.8,1.8,1.8s1.8-0.8,1.8-1.8v-5.1h1.4c6.8,0,12.4,5.6,12.4,12.4L115.8,109.1z M55.6,49.6
			l-8.7,13.9c-0.3,0.4-0.7,0.7-1.2,0.8c-0.1,0-0.2,0-0.3,0c-0.4,0-0.7-0.1-1-0.3l-7.2-5.1c-0.8-0.6-1-1.7-0.4-2.5
			c0.6-0.8,1.7-1,2.5-0.4l5.7,4l7.7-12.3c0.5-0.8,1.6-1.1,2.4-0.6C55.9,47.7,56.1,48.7,55.6,49.6z M55.6,81l-8.7,13.9
			c-0.3,0.4-0.7,0.7-1.2,0.8c-0.1,0-0.2,0-0.3,0c-0.4,0-0.7-0.1-1-0.3l-7.2-5.1c-0.8-0.6-1-1.7-0.4-2.5c0.6-0.8,1.7-1,2.5-0.4l5.7,4
			l7.7-12.3c0.5-0.8,1.6-1.1,2.4-0.6C55.9,79.1,56.1,80.2,55.6,81z"/>
	</g>
</g>
<text transform="matrix(1 0 0 1 6.8931 149.5078)" class="st2 st3 st4">Make a list!</text>
</svg>
