<svg id="Layer_1" data-name="Layer 1" xmlns="http://www.w3.org/2000/svg" viewBox="0 0 142 156"><defs><style>.cls-1{fill:#ffc30c;}.cls-2{font-size:22.46px;fill:#1f1f3d;font-family:OpenSans-Bold, Open Sans;font-weight:700;}</style></defs><title>prompt</title><path class="cls-1" d="M102.38,57.79H65.52a1.43,1.43,0,1,1,0-2.86h36.86a1.43,1.43,0,1,1,0,2.86Z"/><path class="cls-1" d="M102.38,89.17H65.52a1.44,1.44,0,0,1,0-2.87h36.86a1.44,1.44,0,0,1,0,2.87Z"/><path class="cls-1" d="M103.39,18.19H102V11.77a1.77,1.77,0,0,0-3.54,0v6.42H92.24V11.77a1.77,1.77,0,1,0-3.54,0v6.42H82.5V11.77a1.77,1.77,0,1,0-3.54,0v6.42H72.77V11.77a1.77,1.77,0,1,0-3.54,0v6.42H63V11.77a1.77,1.77,0,1,0-3.54,0v6.42H53.3V11.77a1.77,1.77,0,1,0-3.54,0v6.42H43.57V11.77a1.77,1.77,0,0,0-3.54,0v6.42H38.61A16,16,0,0,0,22.68,34.12v74.95A16,16,0,0,0,38.61,125h64.78a16,16,0,0,0,15.93-15.93V34.12A16,16,0,0,0,103.39,18.19Zm12.39,90.88a12.41,12.41,0,0,1-12.39,12.39H38.61a12.41,12.41,0,0,1-12.39-12.39V34.12A12.41,12.41,0,0,1,38.61,21.73H40v5.14a1.77,1.77,0,1,0,3.54,0V21.73h6.19v5.14a1.77,1.77,0,1,0,3.54,0V21.73h6.2v5.14a1.77,1.77,0,1,0,3.54,0V21.73h6.19v5.14a1.77,1.77,0,1,0,3.54,0V21.73H79v5.14a1.77,1.77,0,1,0,3.54,0V21.73h6.2v5.14a1.77,1.77,0,1,0,3.54,0V21.73h6.19v5.14a1.77,1.77,0,1,0,3.54,0V21.73h1.42a12.41,12.41,0,0,1,12.39,12.39ZM55.59,49.58,46.89,63.5a1.76,1.76,0,0,1-1.15.8,2,2,0,0,1-.35,0,1.8,1.8,0,0,1-1-.33l-7.22-5.12A1.77,1.77,0,0,1,39.2,56l5.69,4L52.6,47.7a1.77,1.77,0,1,1,3,1.88Zm0,31.42-8.7,13.93a1.74,1.74,0,0,1-1.15.79,1.34,1.34,0,0,1-.35,0,1.72,1.72,0,0,1-1-.33l-7.22-5.11a1.79,1.79,0,0,1-.42-2.47,1.77,1.77,0,0,1,2.47-.42l5.69,4L52.6,79.13a1.76,1.76,0,1,1,3,1.87Z"/><text class="cls-2" transform="translate(0 149.51)">Make a task!</text></svg>